<svg xmlns="http://www.w3.org/2000/svg" viewBox="0 0 64 64" fill="none">
  <circle cx="32" cy="32" r="28" fill="#B8D4A8" fill-opacity="0.2"/>
  <circle cx="32" cy="24" r="6" fill="#B8D4A8"/>
  <circle cx="20" cy="36" r="5" fill="#B8D4A8" fill-opacity="0.7"/>
  <circle cx="44" cy="36" r="5" fill="#B8D4A8" fill-opacity="0.7"/>
  <path d="M32 30c-4 0-8 2-8 6v4h16v-4c0-4-4-6-8-6z" fill="#B8D4A8"/>
  <path d="M20 42c-3 0-6 1.5-6 4.5V50h12v-3.5c0-3-3-4.5-6-4.5zM44 42c-3 0-6 1.5-6 4.5V50h12v-3.5c0-3-3-4.5-6-4.5z" fill="#B8D4A8" fill-opacity="0.7"/>
</svg>
